<svg xmlns="http://www.w3.org/2000/svg" xmlns:xlink="http://www.w3.org/1999/xlink" width="500" zoomAndPan="magnify" viewBox="0 0 375 374.999991" height="500" preserveAspectRatio="xMidYMid meet" version="1.0"><defs><g/><clipPath id="id1"><path d="M 114.453125 83.757812 L 260.703125 83.757812 L 260.703125 194 L 114.453125 194 Z M 114.453125 83.757812 " clip-rule="nonzero"/></clipPath><clipPath id="id2"><path d="M 114.453125 161 L 260.703125 161 L 260.703125 230.007812 L 114.453125 230.007812 Z M 114.453125 161 " clip-rule="nonzero"/></clipPath></defs><rect x="-37.5" width="450" fill="rgb(100%, 100%, 100%)" y="-37.499999" height="449.999989" fill-opacity="1"/><rect x="-37.5" width="450" fill="rgb(100%, 100%, 100%)" y="-37.499999" height="449.999989" fill-opacity="1"/><rect x="-37.5" width="450" fill="rgb(100%, 100%, 100%)" y="-37.499999" height="449.999989" fill-opacity="1"/><rect x="-37.5" width="450" fill="rgb(100%, 100%, 100%)" y="-37.499999" height="449.999989" fill-opacity="1"/><g clip-path="url(#id1)"><path fill="rgb(100%, 56.858826%, 30.198669%)" d="M 187.5625 112.734375 L 221.660156 121.480469 L 217.886719 122.449219 L 217.886719 136.972656 C 218.441406 137.167969 218.84375 137.699219 218.84375 138.320312 L 218.84375 142.324219 L 215.984375 142.324219 L 215.984375 138.320312 C 215.984375 137.699219 216.382812 137.167969 216.941406 136.972656 L 216.941406 122.691406 L 203.953125 126.023438 L 203.953125 133.695312 L 203.15625 133.695312 C 203.390625 134.945312 203.515625 136.238281 203.515625 137.566406 C 203.515625 142.773438 201.640625 147.472656 198.628906 150.824219 C 204.734375 154.113281 208.882812 160.5625 208.882812 167.984375 L 208.882812 169.289062 C 206.238281 171.003906 203.652344 172.828125 201.167969 174.761719 C 199.074219 176.390625 197.371094 177.804688 195.816406 179.207031 C 194.78125 180.136719 193.929688 180.957031 193.125 181.785156 C 192.566406 182.367188 192.117188 182.871094 191.667969 183.429688 L 191.230469 183.996094 C 191.082031 184.199219 190.910156 184.460938 190.753906 184.699219 C 190.628906 184.886719 190.488281 185.144531 190.320312 185.480469 L 190.140625 185.855469 C 190.089844 185.964844 190.042969 186.066406 189.933594 186.371094 C 189.726562 186.980469 189.589844 187.632812 189.535156 188.277344 C 189.527344 188.355469 189.523438 188.433594 189.519531 188.511719 L 189.492188 188.992188 C 189.480469 189.042969 189.472656 189.082031 189.46875 189.121094 C 189.453125 189.183594 189.433594 189.246094 189.417969 189.308594 C 189.398438 189.367188 189.375 189.425781 189.355469 189.480469 L 189.347656 189.507812 C 189.25 189.734375 189.101562 189.945312 188.921875 190.121094 C 188.585938 190.449219 188.144531 190.640625 187.679688 190.664062 L 187.296875 190.644531 C 187.246094 190.632812 187.195312 190.625 187.136719 190.617188 L 186.984375 190.578125 C 186.980469 190.578125 186.832031 190.519531 186.761719 190.496094 C 186.558594 190.40625 186.367188 190.277344 186.199219 190.113281 C 185.839844 189.769531 185.628906 189.292969 185.621094 188.804688 L 185.617188 188.707031 L 185.515625 187.613281 L 185.429688 187.234375 C 185.386719 187.050781 185.304688 186.75 185.242188 186.570312 C 185.164062 186.328125 185.078125 186.089844 184.996094 185.902344 C 184.769531 185.339844 184.546875 184.945312 184.351562 184.667969 C 184.203125 184.4375 184.035156 184.1875 183.890625 183.988281 L 183.457031 183.429688 C 182.902344 182.742188 182.390625 182.191406 182.003906 181.789062 C 181.042969 180.78125 180.101562 179.917969 179.316406 179.207031 C 177.757812 177.800781 176.054688 176.386719 173.957031 174.753906 C 171.453125 172.804688 168.867188 170.980469 166.238281 169.28125 L 166.238281 167.984375 C 166.238281 160.5625 170.390625 154.113281 176.492188 150.824219 C 173.484375 147.472656 171.609375 142.773438 171.609375 137.566406 C 171.609375 136.238281 171.734375 134.945312 171.964844 133.695312 L 171.171875 133.695312 L 171.171875 126.023438 L 153.464844 121.480469 Z M 126.007812 157.773438 C 126.960938 157.921875 127.917969 158.070312 128.882812 158.21875 C 129.839844 158.40625 130.804688 158.59375 131.773438 158.785156 C 133.722656 159.136719 135.664062 159.625 137.636719 160.082031 C 139.597656 160.554688 141.628906 161.128906 143.59375 161.699219 C 144.558594 162 145.527344 162.300781 146.5 162.605469 L 147.230469 162.832031 L 148.046875 163.113281 C 148.5625 163.289062 149.082031 163.46875 149.589844 163.667969 C 153.675781 165.210938 157.5625 167.214844 161.332031 169.449219 C 165.105469 171.683594 168.753906 174.175781 172.277344 176.914062 C 174.039062 178.289062 175.777344 179.703125 177.480469 181.242188 C 178.335938 182.007812 179.179688 182.796875 180.027344 183.679688 C 180.453125 184.125 180.875 184.589844 181.332031 185.152344 L 181.683594 185.609375 C 181.808594 185.78125 181.957031 186.003906 182.085938 186.207031 C 182.105469 186.222656 182.335938 186.628906 182.457031 186.925781 C 182.527344 187.085938 182.585938 187.25 182.640625 187.414062 C 182.6875 187.554688 182.75 187.792969 182.765625 187.851562 L 182.808594 188.050781 L 182.882812 188.859375 C 182.90625 190.074219 183.421875 191.238281 184.296875 192.085938 C 184.734375 192.507812 185.246094 192.839844 185.804688 193.0625 C 185.945312 193.105469 186.082031 193.171875 186.226562 193.210938 L 186.644531 193.3125 C 186.746094 193.316406 186.785156 193.339844 186.933594 193.367188 L 187.34375 193.386719 L 187.550781 193.398438 L 187.617188 193.402344 C 188.8125 193.390625 189.964844 192.921875 190.828125 192.085938 C 191.261719 191.664062 191.613281 191.160156 191.855469 190.609375 C 191.914062 190.472656 191.957031 190.328125 192.015625 190.191406 C 192.0625 190.046875 192.089844 189.902344 192.132812 189.757812 C 192.167969 189.621094 192.160156 189.566406 192.195312 189.472656 C 192.210938 189.46875 192.214844 189.296875 192.226562 189.164062 L 192.25 188.652344 C 192.253906 188.6875 192.257812 188.429688 192.253906 188.707031 C 192.269531 188.222656 192.367188 187.71875 192.523438 187.261719 C 192.59375 187.058594 192.609375 187.046875 192.660156 186.933594 L 192.789062 186.660156 C 192.871094 186.492188 192.988281 186.277344 193.042969 186.207031 C 193.171875 186.007812 193.316406 185.78125 193.441406 185.609375 L 193.792969 185.152344 C 194.25 184.59375 194.671875 184.125 195.097656 183.683594 C 195.949219 182.804688 196.792969 182.011719 197.648438 181.246094 C 199.351562 179.710938 201.089844 178.292969 202.851562 176.917969 C 206.375 174.179688 210.023438 171.695312 213.796875 169.457031 C 217.582031 167.214844 221.421875 165.234375 225.570312 163.667969 C 226.113281 163.453125 226.589844 163.289062 227.070312 163.125 L 227.851562 162.855469 L 228.597656 162.625 C 229.59375 162.3125 230.582031 162.003906 231.570312 161.695312 C 232.554688 161.390625 233.554688 161.136719 234.539062 160.859375 C 235.527344 160.601562 236.5 160.308594 237.492188 160.089844 C 239.464844 159.636719 241.402344 159.144531 243.351562 158.792969 C 244.320312 158.605469 245.285156 158.414062 246.242188 158.226562 C 247.207031 158.082031 248.167969 157.933594 249.117188 157.785156 C 253.078125 157.183594 256.945312 156.800781 260.6875 156.59375 C 260.519531 116.347656 227.847656 83.773438 187.5625 83.773438 C 147.28125 83.773438 114.609375 116.339844 114.4375 156.582031 C 118.179688 156.789062 122.050781 157.175781 126.007812 157.773438 " fill-opacity="1" fill-rule="nonzero"/></g><path fill="rgb(0%, 0%, 0%)" d="M 199.832031 189.128906 C 199.84375 189.011719 199.851562 188.894531 199.847656 188.78125 L 199.832031 189.128906 " fill-opacity="1" fill-rule="nonzero"/><g clip-path="url(#id2)"><path fill="rgb(25.489807%, 25.489807%, 25.489807%)" d="M 258.160156 174.183594 L 255.632812 174.640625 C 254.792969 174.804688 253.945312 174.929688 253.117188 175.128906 C 251.453125 175.507812 249.78125 175.84375 248.152344 176.300781 C 247.332031 176.515625 246.519531 176.734375 245.707031 176.945312 C 244.90625 177.1875 244.105469 177.429688 243.308594 177.667969 C 242.914062 177.785156 242.515625 177.90625 242.121094 178.023438 C 241.730469 178.15625 241.339844 178.289062 240.953125 178.417969 C 240.175781 178.679688 239.402344 178.941406 238.636719 179.199219 C 235.601562 180.300781 232.679688 181.433594 229.976562 182.660156 C 227.257812 183.851562 224.738281 185.109375 222.441406 186.316406 C 217.851562 188.753906 214.175781 191.074219 211.675781 192.796875 C 209.164062 194.511719 207.820312 195.617188 207.820312 195.617188 C 207.820312 195.617188 209.09375 194.429688 211.503906 192.558594 C 213.902344 190.679688 217.441406 188.125 221.914062 185.390625 C 224.152344 184.03125 226.613281 182.605469 229.289062 181.234375 C 231.949219 179.824219 234.835938 178.5 237.855469 177.183594 C 238.617188 176.875 239.386719 176.5625 240.160156 176.246094 C 240.546875 176.089844 240.9375 175.933594 241.328125 175.773438 C 241.722656 175.628906 242.117188 175.480469 242.515625 175.335938 C 243.3125 175.039062 244.113281 174.746094 244.917969 174.449219 C 245.730469 174.179688 246.550781 173.910156 247.371094 173.636719 C 249.011719 173.066406 250.703125 172.617188 252.386719 172.125 C 253.226562 171.867188 254.089844 171.683594 254.941406 171.464844 L 257.515625 170.832031 L 259.433594 170.441406 C 259.96875 167.59375 260.335938 164.6875 260.527344 161.730469 C 257.140625 162.148438 253.664062 162.714844 250.125 163.445312 C 249.222656 163.636719 248.316406 163.824219 247.402344 164.015625 C 246.496094 164.238281 245.585938 164.460938 244.667969 164.6875 C 242.828125 165.105469 240.996094 165.660156 239.136719 166.179688 C 238.203125 166.429688 237.285156 166.753906 236.355469 167.042969 C 235.429688 167.351562 234.484375 167.617188 233.554688 167.949219 C 232.625 168.273438 231.691406 168.601562 230.757812 168.933594 L 230.050781 169.179688 L 229.386719 169.4375 C 228.90625 169.621094 228.421875 169.808594 228.015625 169.988281 C 227.175781 170.339844 226.269531 170.753906 225.390625 171.179688 C 224.507812 171.605469 223.628906 172.058594 222.75 172.523438 C 220.992188 173.457031 219.246094 174.476562 217.523438 175.558594 C 214.082031 177.734375 210.703125 180.15625 207.445312 182.753906 C 205.824219 184.054688 204.222656 185.40625 202.722656 186.800781 C 201.972656 187.496094 201.242188 188.207031 200.589844 188.90625 C 200.296875 189.214844 200.019531 189.527344 199.800781 189.792969 C 199.792969 189.863281 199.785156 189.941406 199.773438 190.054688 C 199.714844 190.496094 199.65625 190.988281 199.5625 191.382812 C 199.464844 191.769531 199.378906 192.15625 199.253906 192.53125 C 199.121094 192.90625 198.996094 193.28125 198.835938 193.644531 C 198.207031 195.101562 197.292969 196.429688 196.164062 197.539062 C 193.917969 199.769531 190.738281 201.078125 187.5625 201.066406 L 186.546875 201.023438 C 186.15625 200.984375 185.652344 200.910156 185.210938 200.839844 C 184.789062 200.753906 184.429688 200.648438 184.035156 200.546875 C 183.65625 200.433594 183.285156 200.285156 182.910156 200.148438 C 181.4375 199.542969 180.089844 198.652344 178.957031 197.539062 C 176.871094 195.515625 175.554688 192.691406 175.324219 189.796875 C 175.101562 189.527344 174.828125 189.21875 174.535156 188.910156 C 173.875 188.214844 173.148438 187.5 172.394531 186.804688 C 170.894531 185.410156 169.296875 184.0625 167.675781 182.757812 C 161.15625 177.589844 154.179688 173.003906 147.074219 169.984375 C 146.628906 169.792969 146.1875 169.621094 145.742188 169.449219 L 145.117188 169.207031 L 144.394531 168.953125 C 143.4375 168.613281 142.480469 168.277344 141.527344 167.945312 C 140.574219 167.605469 139.667969 167.351562 138.742188 167.046875 C 137.820312 166.761719 136.921875 166.441406 135.984375 166.191406 C 134.125 165.671875 132.292969 165.117188 130.453125 164.695312 C 129.535156 164.472656 128.625 164.25 127.71875 164.027344 C 126.804688 163.835938 125.898438 163.644531 124.996094 163.457031 C 121.457031 162.726562 117.980469 162.160156 114.597656 161.742188 C 114.789062 164.691406 115.15625 167.597656 115.691406 170.441406 L 117.609375 170.832031 L 120.179688 171.464844 C 121.035156 171.683594 121.894531 171.867188 122.738281 172.125 C 124.421875 172.617188 126.113281 173.066406 127.75 173.636719 C 128.574219 173.910156 129.390625 174.179688 130.207031 174.449219 C 131.011719 174.746094 131.8125 175.039062 132.609375 175.335938 C 133.007812 175.480469 133.402344 175.628906 133.796875 175.773438 C 134.1875 175.933594 134.578125 176.089844 134.964844 176.246094 C 135.738281 176.5625 136.507812 176.875 137.269531 177.183594 C 140.285156 178.5 143.175781 179.824219 145.835938 181.234375 C 148.511719 182.605469 150.972656 184.03125 153.210938 185.390625 C 157.683594 188.125 161.222656 190.679688 163.621094 192.558594 C 166.03125 194.429688 167.304688 195.617188 167.304688 195.617188 C 167.304688 195.617188 165.960938 194.511719 163.449219 192.796875 C 160.945312 191.074219 157.273438 188.753906 152.683594 186.316406 C 150.386719 185.109375 147.867188 183.851562 145.148438 182.660156 C 142.441406 181.433594 139.519531 180.300781 136.484375 179.199219 C 135.722656 178.941406 134.949219 178.679688 134.171875 178.417969 C 133.785156 178.289062 133.394531 178.15625 133.003906 178.023438 C 132.609375 177.90625 132.210938 177.785156 131.8125 177.667969 C 131.019531 177.429688 130.21875 177.1875 129.417969 176.945312 C 128.605469 176.734375 127.792969 176.515625 126.972656 176.300781 C 125.34375 175.84375 123.671875 175.507812 122.007812 175.128906 C 121.179688 174.929688 120.328125 174.804688 119.488281 174.640625 L 116.960938 174.183594 L 116.476562 174.117188 C 124.21875 206.195312 153.105469 230.03125 187.5625 230.03125 C 222.019531 230.03125 250.90625 206.195312 258.648438 174.117188 L 258.160156 174.183594 " fill-opacity="1" fill-rule="nonzero"/></g><g fill="rgb(25.489807%, 25.489807%, 25.489807%)" fill-opacity="1"><g transform="translate(118.98385, 267.186251)"><g><path d="M 1.613281 0 L 16.433594 0 C 20.945312 0 23.910156 -2.402344 23.910156 -6.125 C 23.910156 -8.660156 22.492188 -10.671875 20.320312 -11.625 C 22.195312 -12.644531 23.285156 -14.554688 23.285156 -16.960938 C 23.285156 -20.78125 20.515625 -23.054688 15.90625 -23.054688 L 1.613281 -23.054688 Z M 10.503906 -5.863281 L 10.503906 -8.992188 L 12.910156 -8.992188 C 14.0625 -8.992188 14.6875 -8.429688 14.6875 -7.410156 C 14.6875 -6.421875 14.0625 -5.863281 12.910156 -5.863281 Z M 10.503906 -14.261719 L 10.503906 -17.289062 L 12.679688 -17.289062 C 13.796875 -17.289062 14.425781 -16.730469 14.425781 -15.773438 C 14.425781 -14.785156 13.796875 -14.261719 12.679688 -14.261719 Z M 10.503906 -14.261719 "/></g></g></g><g fill="rgb(25.489807%, 25.489807%, 25.489807%)" fill-opacity="1"><g transform="translate(151.058987, 267.186251)"><g><path d="M 7.96875 0 L 17.386719 0 L 17.386719 -7.3125 L 25.324219 -23.054688 L 15.082031 -23.054688 L 13.832031 -19.265625 L 12.8125 -15.644531 L 12.515625 -15.644531 L 11.527344 -19.265625 L 10.242188 -23.054688 L 0.03125 -23.054688 L 7.96875 -7.3125 Z M 7.96875 0 "/></g></g></g><g fill="rgb(100%, 56.858826%, 30.198669%)" fill-opacity="1"><g transform="translate(183.882283, 267.186251)"><g><path d="M 11.097656 0.460938 C 17.75 0.460938 21.605469 -2.371094 21.605469 -7.179688 C 21.605469 -11.328125 19.035156 -13.46875 12.910156 -14.390625 C 10.210938 -14.785156 9.386719 -15.246094 9.386719 -16.203125 C 9.386719 -16.894531 9.945312 -17.324219 10.867188 -17.324219 C 11.953125 -17.324219 12.515625 -16.730469 12.515625 -15.542969 L 21.144531 -15.542969 C 20.914062 -20.617188 17.15625 -23.515625 10.800781 -23.515625 C 4.511719 -23.515625 0.722656 -20.714844 0.722656 -16.003906 C 0.722656 -11.824219 3.292969 -9.683594 9.15625 -8.824219 C 11.722656 -8.429688 12.644531 -7.9375 12.644531 -6.980469 C 12.644531 -6.257812 12.121094 -5.828125 11.164062 -5.828125 C 10.042969 -5.828125 9.453125 -6.453125 9.453125 -7.640625 L 0.558594 -7.640625 C 0.558594 -2.535156 4.414062 0.460938 11.097656 0.460938 Z M 11.097656 0.460938 "/></g></g></g><g fill="rgb(100%, 56.858826%, 30.198669%)" fill-opacity="1"><g transform="translate(213.619416, 267.186251)"><g><path d="M 11.097656 0.460938 C 17.75 0.460938 21.605469 -2.371094 21.605469 -7.179688 C 21.605469 -11.328125 19.035156 -13.46875 12.910156 -14.390625 C 10.210938 -14.785156 9.386719 -15.246094 9.386719 -16.203125 C 9.386719 -16.894531 9.945312 -17.324219 10.867188 -17.324219 C 11.953125 -17.324219 12.515625 -16.730469 12.515625 -15.542969 L 21.144531 -15.542969 C 20.914062 -20.617188 17.15625 -23.515625 10.800781 -23.515625 C 4.511719 -23.515625 0.722656 -20.714844 0.722656 -16.003906 C 0.722656 -11.824219 3.292969 -9.683594 9.15625 -8.824219 C 11.722656 -8.429688 12.644531 -7.9375 12.644531 -6.980469 C 12.644531 -6.257812 12.121094 -5.828125 11.164062 -5.828125 C 10.042969 -5.828125 9.453125 -6.453125 9.453125 -7.640625 L 0.558594 -7.640625 C 0.558594 -2.535156 4.414062 0.460938 11.097656 0.460938 Z M 11.097656 0.460938 "/></g></g></g><g fill="rgb(100%, 56.858826%, 30.198669%)" fill-opacity="1"><g transform="translate(243.356549, 267.186251)"><g><path d="M 1.613281 0 L 11.03125 0 L 11.03125 -23.054688 L 1.613281 -23.054688 Z M 1.613281 0 "/></g></g></g></svg>