<svg viewBox="0 0 512 512" xml:space="preserve" xmlns="http://www.w3.org/2000/svg" enable-background="new 0 0 512 512"><path d="M226.813 98.365a45.61 45.61 0 0 0 6.373 1.92 46.409 46.409 0 0 0 9.893 1.082c9.795 0 18.875-3.1 26.283-8.344a46.156 46.156 0 0 0 7.014-6.127l7.899-13.166a45.193 45.193 0 0 0-11.861-2.632H272.243l-.074-.024h-.245l-.149-.025h-.172l-.147-.023h-.319l-.469-.027h-.024l-.147-.024h-.64l-.147-.024h-2.04l-.271.024H266.759l-.467.024h-.049l-.396.027-.196.023h-.251l-.319.025-.147.024-.42.024h-.024l-.565.074-.32.023-.246.025-.196.024-.37.049h-.074l-.467.073h-.024l-.393.05-.174.024-.271.049-.295.05-.566.099h-.024l-.442.073-.099.024-.321.074-.245.023-.541.123-.075.025-.442.1h-.049l-.542.123-.271.073-.813.222h-.024l-1.599.467-.074.024a45.5 45.5 0 0 0-18.581 11.272 45.492 45.492 0 0 0-9.574 14.08m53.13-5.17a55.738 55.738 0 0 1-6.545 5.49c-8.565 6.078-19.023 9.645-30.319 9.645a53.28 53.28 0 0 1-11.394-1.254 54.343 54.343 0 0 1-7.161-2.141 45.832 45.832 0 0 0-1.478 11.543 45.319 45.319 0 0 0 13.338 32.188 45.316 45.316 0 0 0 32.189 13.339c12.576 0 23.97-5.118 32.189-13.339a45.317 45.317 0 0 0 13.338-32.188c0-3.127-.295-6.179-.91-9.131l-.148-.051-33.099-14.101zm11.2-16.265a53.736 53.736 0 0 1-6.351 10.779l25.692 10.927-.073-.196-.099-.199-.074-.195-.1-.172v-.025l-.073-.172-.099-.196-.073-.196-.099-.174-.27-.565-.074-.172-.024-.024-.073-.174-.099-.197-.051-.098-.05-.098-.098-.172-.196-.369-.099-.198-.196-.344-.099-.196-.049-.074-.049-.098-.199-.371-.27-.491-.049-.049-.099-.172-.099-.174-.046-.075-.074-.123-.098-.172-.099-.172h-.024l-.1-.172-.123-.174-.049-.123-.05-.074-.123-.172-.098-.172-.024-.024-.099-.147-.099-.172-.098-.149-.025-.024-.122-.172-.125-.172-.049-.074-.074-.098-.098-.172-.123-.148v-.024l-.123-.149-.123-.173-.073-.122-.049-.05-.123-.172-.123-.172-.026-.049-.099-.098-.122-.174-.099-.148-.024-.023-.123-.172-.123-.148-.073-.098-.049-.074-.123-.146-.147-.174-.026-.025-.099-.123-.123-.172-.098-.122-.024-.024-.147-.172-.123-.148-.073-.073-.099-.149-.172-.196-.075-.073-.099-.123-.172-.197-.074-.098-.098-.098-.172-.199-.099-.098-.073-.099-.543-.565-.122-.146-.05-.05-.172-.198-.518-.516-.196-.172a45.239 45.239 0 0 0-9.619-7.362zm-22.888 136.828h28.596L296.014 189l-2.979 2.684-.049.023-.024.025-.049.049-.025.025-.049.023-.024.05-.049.024-23.87 21.362c-.199.198-.42.345-.641.493zm-28.423-23.994-1.256 23.994h26.309a4.027 4.027 0 0 1-.641-.491l-24.412-23.503zm62.826-2.018.984 29.26c.05 1.821-1.401 3.373-3.223 3.422l-65.363.024a3.35 3.35 0 0 1-3.346-3.349l1.549-29.579-54.166 23.6v47.201h177.212v-47.201l-53.647-23.378zm-15.331-22.223c-5.808 2.238-12.132 3.446-18.753 3.446-7.161 0-13.978-1.429-20.204-4.036v23.771l18.284 17.597 20.673-18.482v-22.296zm72.402 99.497H74.899v13.756h385.603V265.02H359.729zm-209.524 44.788c-5.391-5.389-12.847-8.735-21.09-8.735-8.195 0-15.628 3.322-21.017 8.662-5.634 5.636-8.786 13.166-8.786 21.164 0 8.219 3.348 15.677 8.737 21.065a29.626 29.626 0 0 0 21.066 8.737c8.146 0 15.527-3.25 20.894-8.541 5.757-6.25 8.934-12.6 8.934-21.262-.002-8.244-3.35-15.7-8.738-21.09zm-24.758 87.609-18.58-17.843-37.479 16.318v30.294h118.247v-30.294l-37.553-16.367-3.594 3.226-.049.024-.024.049-.049.025-.024.023-.049.05-.025.024-.049.025-16.144 14.444c-1.281 1.231-3.347 1.257-4.628.002zM293.7 309.808c-5.389-5.389-12.846-8.735-21.065-8.735-8.194 0-15.626 3.322-21.017 8.662-5.659 5.636-8.809 13.166-8.809 21.164 0 8.219 3.346 15.677 8.735 21.065 5.391 5.413 12.846 8.737 21.09 8.737 8.121 0 15.505-3.25 20.894-8.541 5.734-6.25 8.909-12.6 8.909-21.262.001-8.244-3.347-15.7-8.737-21.09zm-24.756 87.609-18.581-17.843-37.455 16.318v30.294h118.248v-30.294l-37.578-16.367-3.594 3.226-.024.024-.05.049-.024.025-.049.023-.024.05-.05.024-.024.025-16.168 14.444a3.337 3.337 0 0 1-4.627.002zm15.357-18.53v-13.092a37.394 37.394 0 0 1-11.666 1.87c-4.453 0-8.711-.788-12.673-2.241v14.077l11.394 10.952 12.945-11.566zm152.7-69.079c-5.389-5.389-12.847-8.735-21.066-8.735s-15.626 3.322-21.041 8.662c-5.634 5.636-8.784 13.166-8.784 21.164 0 8.219 3.347 15.677 8.735 21.065 5.391 5.413 12.847 8.737 21.09 8.737 8.121 0 15.505-3.25 20.895-8.541 5.734-6.25 8.908-12.6 8.908-21.262-.001-8.244-3.348-15.7-8.737-21.09zm-24.756 87.609-18.581-17.843-37.455 16.318v30.294h118.223v-30.294l-37.554-16.367-3.594 3.226-.049.024-.024.049-.025.025-.049.023-.024.05-.049.024-.025.025-16.168 14.444a3.335 3.335 0 0 1-4.626.002zm15.356-18.53v-13.092a37.507 37.507 0 0 1-11.666 1.87c-4.453 0-8.71-.788-12.673-2.241v14.077l11.369 10.952 12.97-11.566zM99.731 228.549c0-3.84-6.695-4.332-6.695.344.123 2.215.419 4.775.714 6.989 1.009 4.972 7.382 2.88 6.668-.788-.319-2.116-.515-4.405-.687-6.545zm-.172-26.235c0-4.995-6.669-4.283-6.669-.468l-.369 6.817c0 4.676 6.692 4.355 6.692.221l.346-6.57zm3.913-25.914c.909-4.578-5.71-5.586-6.522-1.525-.516 2.216-.959 4.455-1.402 6.693-.321 1.625.664 3.175 1.994 3.692 2.091.861 4.183-.444 4.576-2.438.419-2.139.861-4.28 1.354-6.422zm7.972-24.953c1.649-4.184-4.577-6.595-6.202-2.559a200.822 200.822 0 0 0-2.46 6.373c-.689 1.723.393 3.643 1.821 4.207 1.994.789 3.789-.195 4.479-1.943a141.19 141.19 0 0 1 2.362-6.078zm11.813-23.427c2.288-3.815-3.494-7.211-5.735-3.47l-3.42 5.905c-1.969 3.273 2.879 7.236 5.759 3.422l3.396-5.857zm15.331-21.263c.714-.714 1.034-2.239.591-3.321-.984-2.438-3.766-2.93-5.686-1.01a127.707 127.707 0 0 0-4.331 5.315c-2.732 3.616 2.732 7.505 5.291 4.085l4.135-5.069zm18.483-18.607c3.543-3.542-1.699-7.75-4.382-5.068-1.647 1.428-3.542 3.026-5.094 4.553-3.297 3.298 1.649 7.826 4.603 4.873a204.41 204.41 0 0 1 4.873-4.358zm21.164-15.502c3.641-2.19.172-7.925-3.52-5.686-1.871 1.256-3.864 2.438-5.759 3.717-3.592 2.141-.172 7.899 3.766 5.537a139.748 139.748 0 0 1 5.513-3.568zm23.329-11.96c3.938-1.574 1.599-7.851-2.56-6.201-2.092.837-4.232 1.821-6.299 2.781-1.157.467-2.19 2.066-1.896 3.518.444 2.217 2.462 3.447 4.726 2.536l6.029-2.634zm24.879-8.146c.371-.073.886-.319 1.158-.517 2.878-2.164 1.034-6.742-2.732-5.979-2.19.516-4.406 1.107-6.596 1.722-4.257 1.723-2.46 7.311 1.846 6.448 2.091-.591 4.208-1.181 6.324-1.674zm25.914-4.11c3.938 0 4.159-6.669-.172-6.669-2.239.051-4.922.395-7.161.665-4.971 1.009-2.904 7.382.788 6.645 2.19-.248 4.355-.469 6.545-.641zm26.208-.024c5.07 0 4.282-6.67.519-6.67l-6.793-.394c-4.726 0-4.38 6.694-.246 6.694l6.52.37zm25.915 4.061c4.625.935 5.561-5.711 1.549-6.496l-6.692-1.479c-4.406-.861-5.317 5.784-1.257 6.572l6.4 1.403zm24.928 8.121c4.16 1.648 6.572-4.602 2.535-6.201l-6.348-2.485c-3.889-1.575-6.597 4.576-2.291 6.274 2.044.763 4.087 1.574 6.104 2.412zm23.356 11.935c3.789 2.288 7.211-3.47 3.469-5.734a172.095 172.095 0 0 0-5.881-3.445c-1.083-.641-2.633-.518-3.543.197-2.067 1.526-1.846 4.379.27 5.66 1.919 1.059 3.815 2.19 5.685 3.322zm21.139 15.454c2.73 2.732 7.874-1.573 4.355-5.094-1.724-1.476-3.495-2.904-5.267-4.355-3.667-2.756-7.506 2.732-4.134 5.267a138.447 138.447 0 0 1 5.046 4.182zm18.506 18.582c3.594 3.566 7.753-1.699 5.094-4.357l-4.527-5.119c-3.323-3.321-7.802 1.65-4.897 4.555a155.878 155.878 0 0 1 4.33 4.921zm15.38 21.237c2.239 3.69 7.998.295 5.734-3.446-1.058-1.869-2.707-4.552-4.011-6.201-2.904-2.929-7.382.542-5.241 4.109a162.698 162.698 0 0 1 3.518 5.538zm11.862 23.378c1.525 3.865 7.851 1.602 6.177-2.56a177.844 177.844 0 0 0-2.707-6.251c-1.525-3.789-7.85-1.598-6.104 2.781.936 1.995 1.797 4.012 2.634 6.03zm7.998 24.955c.813 4.061 7.432 3.051 6.496-1.551-.491-2.19-1.082-4.381-1.672-6.57-1.724-4.309-7.311-2.512-6.449 1.795.568 2.091 1.132 4.21 1.625 6.326zm3.963 25.937c0 3.839 6.668 4.406 6.668-.418a130.178 130.178 0 0 0-.639-6.891c-.984-4.996-7.359-2.904-6.646.763.246 2.166.47 4.356.617 6.546zm-.123 26.209c0 5.094 6.668 4.283 6.668.541l.444-6.816c0-4.75-6.695-4.331-6.695-.271l-.417 6.546zM221.498 470.655c-1.846 0-3.348-1.478-3.348-3.323a3.357 3.357 0 0 1 3.348-3.371h212.771a3.357 3.357 0 0 1 3.348 3.371c0 1.846-1.502 3.323-3.348 3.323H221.498zm234.551 0c-1.847 0-3.347-1.478-3.347-3.323 0-1.869 1.5-3.371 3.347-3.371h26.602a3.358 3.358 0 0 1 3.349 3.371c0 1.846-1.503 3.323-3.349 3.323h-26.602zm-426.701-.468a3.349 3.349 0 0 1-3.346-3.347c0-1.846 1.5-3.346 3.346-3.346h100.825c1.846 0 3.346 1.5 3.346 3.346 0 1.847-1.5 3.347-3.346 3.347H29.348zm12.108-15.528a3.351 3.351 0 0 1-3.346-3.349 3.35 3.35 0 0 1 3.346-3.346h307.469a3.35 3.35 0 0 1 3.347 3.346 3.352 3.352 0 0 1-3.347 3.349H41.456zm99.322-75.772v-13.092a37.259 37.259 0 0 1-11.664 1.87c-4.454 0-8.712-.788-12.65-2.241v14.077l11.371 10.952 12.943-11.566z" fill-rule="evenodd" clip-rule="evenodd" fill="#ffffff" class="fill-000000"></path></svg>