<svg viewBox="0 0 512 512" xmlns="http://www.w3.org/2000/svg"><path d="M496.865 345.679c0-.016-.005-.03-.005-.045V128.953a31.558 31.558 0 0 0-31.52-31.53h-19.62l-.08-73.55a15.48 15.48 0 0 0-15.47-15.46H269.72a15.477 15.477 0 0 0-15.46 15.46v49.59l-33.384 23.96H196.43v-2.57a30.685 30.685 0 0 0-30.65-30.65H125.6a30.655 30.655 0 0 0-30.654 30.653v2.567H46.66a31.558 31.558 0 0 0-31.52 31.53v216.68c0 .016-.005.03-.005.046s.005.03.005.044v41.2a31.558 31.558 0 0 0 31.52 31.53h171.53l-10.284 75.134h-24.383a5 5 0 1 0 0 10h146.875a5 5 0 0 0 0-10h-24.383l-10.284-75.134H465.34a31.558 31.558 0 0 0 31.52-31.53v-41.2c0-.015.005-.029.005-.044ZM217.999 493.587l10.284-75.133h57.355l10.284 75.133ZM465.34 107.423a21.548 21.548 0 0 1 21.52 21.53v11.91h-42.116a15.38 15.38 0 0 0 1.016-5.47l-.03-27.97Zm-203.17-27.33a5 5 0 0 0 2.09-4.06v-52.16a5.467 5.467 0 0 1 5.46-5.46h160.45a5.478 5.478 0 0 1 5.47 5.47l.12 111.52a5.47 5.47 0 0 1-5.47 5.46h-65.1a14.702 14.702 0 0 0-26.193-5.9l-4.418 5.9H269.85a5.473 5.473 0 0 1-5.47-5.48l-.12-32.98a5.006 5.006 0 0 0-5-4.99h-21.22Zm80.716 90.451 20.112 15.062a11.735 11.735 0 0 1 2.359 16.428l-2.566 3.427a8.675 8.675 0 0 1-4.956 3.241l-12.964 3.041a22.336 22.336 0 0 0-12.756 8.343l-4.336 5.791-20.715-15.515 4.86-6.489a22.195 22.195 0 0 0 4.435-12.567l.183-5.117a15.242 15.242 0 0 1 3.044-8.624l27.415-36.608a4.72 4.72 0 1 1 7.557 5.66l-12.677 16.928a5 5 0 0 0 1.005 7ZM197.091 271.958a5.002 5.002 0 0 0-3.474 4.762v63.959h-80.935v-62.853a5 5 0 0 0-10 0v62.853h-38.42v-93.15A31.071 31.071 0 0 1 95.3 216.493h26.813l25.153 14.897a14.99 14.99 0 0 0 22.63-12.899v-1.998h28.208a35.147 35.147 0 0 1 31.407 19.195l13.68 26.69a11.23 11.23 0 0 0 19.07 1.491l34.649-47.551 28.975 22.731-40.137 54.395a42.891 42.891 0 0 1-69.405-.526l-13.657-19.105a5 5 0 0 0-5.594-1.855ZM25.14 340.678V150.864h55.726a22.38 22.38 0 0 0 16.414 10.56 50.403 50.403 0 0 0 21.2 27.693v17.377H95.3a41.083 41.083 0 0 0-41.037 41.036v93.15Zm185.903-189.815H327.09l-15.508 20.707a25.19 25.19 0 0 0-5.033 14.26l-.183 5.117a12.245 12.245 0 0 1-2.447 6.932l-5.326 7.111a4.952 4.952 0 0 0-6.715 1.251l-37.7 51.74a1.23 1.23 0 0 1-2.088-.164l-13.68-26.69a45.108 45.108 0 0 0-40.306-24.634H169.89v-15.7a51.008 51.008 0 0 0 23.57-27.48l-.004-.003a21.661 21.661 0 0 0 17.587-12.447Zm-82.563 43.12a51.114 51.114 0 0 0 17.21 2.97 50.578 50.578 0 0 0 14.2-2.028v22.568c0-.016.005-.031.005-.047v1.045a4.991 4.991 0 0 1-7.534 4.295l-23.881-14.143Zm62.948-40.575a11.619 11.619 0 1 1 11.619-11.62 11.632 11.632 0 0 1-11.619 11.62Zm-65.83-79.204h40.177a20.518 20.518 0 0 1 11.277 3.372 20.809 20.809 0 0 1 5.195 4.873 20.517 20.517 0 0 1 4.18 12.406v10.718l-59.455-.325h-.082a14.945 14.945 0 0 0-14.684 12.593l-.517 3.354a3.05 3.05 0 0 1-5.62 1.118l-1.12-1.842V94.853a20.66 20.66 0 0 1 20.649-20.649Zm-28.29 52.95.213.35a12.905 12.905 0 0 0 11.086 6.284 13.441 13.441 0 0 0 2.615-.259 12.925 12.925 0 0 0 10.35-10.81l.517-3.354a4.885 4.885 0 0 1 4.8-4.117h.027l59.514.325v5.187a21.685 21.685 0 0 0-16.03 16.03h-4.813a5.01 5.01 0 0 0-.954.095 21.619 21.619 0 1 0 0 9.808 5.008 5.008 0 0 0 .954.096h4.813a21.7 21.7 0 0 0 12.911 15.032v.002a40.733 40.733 0 0 1-77.31-6.42 5.01 5.01 0 0 0-4.87-3.88c-.12 0-.23.01-.35.02l-.16.01c-.23.01-.45.03-.67.03a12.357 12.357 0 0 1-2.642-24.43Zm57.892 14.635a11.619 11.619 0 1 1-11.619-11.618 11.632 11.632 0 0 1 11.619 11.618Zm99.08-34.366.1 27.98a15.351 15.351 0 0 0 1.014 5.46h-42.37a21.655 21.655 0 0 0-16.594-20.102v-13.338Zm-229.14 21.53a21.548 21.548 0 0 1 21.52-21.53h48.286v10.001a22.397 22.397 0 0 0-17.356 21.799c0 .553.037 1.097.077 1.64H25.14Zm440.2 279.5H46.66a21.548 21.548 0 0 1-21.52-21.53v-36.244h389.851a5 5 0 0 0 0-10H203.617v-48.365l4.589 6.418a52.891 52.891 0 0 0 85.587.649l43.02-58.3a5 5 0 0 0-.937-6.903l-1.146-.9 5.39-7.198a12.316 12.316 0 0 1 7.035-4.6l12.963-3.042a18.697 18.697 0 0 0 10.677-6.982l2.566-3.428a21.734 21.734 0 0 0-4.369-30.427l-16.11-12.064 9.68-12.927a14.896 14.896 0 0 0 1.109-1.747H486.86v189.816h-49.483a5 5 0 0 0 0 10h49.483v36.244a21.548 21.548 0 0 1-21.52 21.53Z" fill="#ffffff" class="fill-000000"></path><path d="M316.228 93.385a29.513 29.513 0 1 0-29.513-29.513 29.546 29.546 0 0 0 29.513 29.513Zm0-49.026a19.513 19.513 0 1 1-19.513 19.513 19.535 19.535 0 0 1 19.513-19.512ZM357.38 113.708h54.741a5 5 0 0 0 4.268-7.605l-27.37-44.836a5 5 0 0 0-8.536 0l-27.37 44.836a5 5 0 0 0 4.268 7.605Zm27.37-40.24 18.461 30.24h-36.92ZM391.281 46.624h6.286v6.286a4 4 0 1 0 8 0v-6.286h6.285a4 4 0 0 0 0-8h-6.285v-6.286a4 4 0 0 0-8 0v6.286h-6.286a4 4 0 0 0 0 8ZM315.904 114.569h-20.571a4 4 0 0 0 0 8h20.571a4 4 0 0 0 0-8ZM256 362.89a16.724 16.724 0 1 0 16.724 16.724A16.742 16.742 0 0 0 256 362.891Zm0 23.448a6.724 6.724 0 1 1 6.724-6.724 6.731 6.731 0 0 1-6.724 6.724Z" fill="#ffffff" class="fill-000000"></path></svg>